<mxfile host="app.diagrams.net" agent="Mozilla/5.0 (Windows NT 10.0; Win64; x64) AppleWebKit/537.36 (KHTML, like Gecko) Chrome/128.0.0.0 Safari/537.36" version="24.7.16">
  <diagram name="第 1 页" id="QClTNXcgWMtWeMr5wYIb">
    <mxGraphModel dx="1420" dy="724" grid="1" gridSize="10" guides="1" tooltips="1" connect="1" arrows="1" fold="1" page="1" pageScale="1" pageWidth="1169" pageHeight="827" math="0" shadow="0">
      <root>
        <mxCell id="0" />
        <mxCell id="1" parent="0" />
        <mxCell id="vKG6InuEvvyrwk2dPw3P-74" value="" style="rounded=0;whiteSpace=wrap;html=1;strokeWidth=2;fillColor=default;movable=1;resizable=1;rotatable=1;deletable=1;editable=1;locked=0;connectable=1;" parent="1" vertex="1">
          <mxGeometry x="260" y="110" width="290" height="280" as="geometry" />
        </mxCell>
        <mxCell id="vKG6InuEvvyrwk2dPw3P-58" value="" style="group;strokeWidth=2;fillColor=#FFF0F0;strokeColor=#b85450;movable=1;resizable=1;rotatable=1;deletable=1;editable=1;locked=0;connectable=1;container=0;" parent="1" vertex="1" connectable="0">
          <mxGeometry x="640" y="110" width="360" height="550" as="geometry" />
        </mxCell>
        <mxCell id="vKG6InuEvvyrwk2dPw3P-101" value="" style="group;strokeWidth=2;fillColor=#F5F7F9;strokeColor=#6c8ebf;container=0;movable=1;resizable=1;rotatable=1;deletable=1;editable=1;locked=0;connectable=1;" parent="1" vertex="1" connectable="0">
          <mxGeometry x="260" y="110" width="290" height="280" as="geometry" />
        </mxCell>
        <mxCell id="vKG6InuEvvyrwk2dPw3P-124" style="edgeStyle=orthogonalEdgeStyle;rounded=0;orthogonalLoop=1;jettySize=auto;html=1;entryX=0.5;entryY=1;entryDx=0;entryDy=0;shape=flexArrow;fillColor=#F4EDF7;strokeColor=#9673a6;strokeWidth=2;movable=1;resizable=1;rotatable=1;deletable=1;editable=1;locked=0;connectable=1;" parent="1" source="vKG6InuEvvyrwk2dPw3P-121" target="vKG6InuEvvyrwk2dPw3P-74" edge="1">
          <mxGeometry relative="1" as="geometry" />
        </mxCell>
        <mxCell id="vKG6InuEvvyrwk2dPw3P-125" value="" style="edgeStyle=orthogonalEdgeStyle;rounded=0;orthogonalLoop=1;jettySize=auto;html=1;shape=flexArrow;fillColor=#F5F7F9;strokeColor=#6c8ebf;strokeWidth=2;movable=1;resizable=1;rotatable=1;deletable=1;editable=1;locked=0;connectable=1;" parent="1" source="vKG6InuEvvyrwk2dPw3P-74" edge="1">
          <mxGeometry relative="1" as="geometry">
            <mxPoint x="640" y="250" as="targetPoint" />
          </mxGeometry>
        </mxCell>
        <mxCell id="vKG6InuEvvyrwk2dPw3P-126" style="edgeStyle=orthogonalEdgeStyle;rounded=0;orthogonalLoop=1;jettySize=auto;html=1;entryX=1;entryY=0.5;entryDx=0;entryDy=0;shape=flexArrow;fillColor=#FFF0F0;strokeColor=#b85450;strokeWidth=2;movable=1;resizable=1;rotatable=1;deletable=1;editable=1;locked=0;connectable=1;" parent="1" target="vKG6InuEvvyrwk2dPw3P-121" edge="1">
          <mxGeometry relative="1" as="geometry">
            <mxPoint x="640" y="550" as="sourcePoint" />
          </mxGeometry>
        </mxCell>
        <mxCell id="vKG6InuEvvyrwk2dPw3P-100" value="缺陷定位" style="text;html=1;align=center;verticalAlign=middle;whiteSpace=wrap;rounded=0;fontSize=16;strokeWidth=2;fontStyle=1;movable=1;resizable=1;rotatable=1;deletable=1;editable=1;locked=0;connectable=1;" parent="1" vertex="1">
          <mxGeometry x="365" y="110" width="80" height="30" as="geometry" />
        </mxCell>
        <mxCell id="kv2m1gdb-LCeSmeL4Ier-5" style="edgeStyle=orthogonalEdgeStyle;rounded=0;orthogonalLoop=1;jettySize=auto;html=1;entryX=0;entryY=0.5;entryDx=0;entryDy=0;strokeWidth=2;" parent="1" source="vKG6InuEvvyrwk2dPw3P-66" target="vKG6InuEvvyrwk2dPw3P-72" edge="1">
          <mxGeometry relative="1" as="geometry" />
        </mxCell>
        <mxCell id="kv2m1gdb-LCeSmeL4Ier-35" style="edgeStyle=orthogonalEdgeStyle;rounded=0;orthogonalLoop=1;jettySize=auto;html=1;entryX=0;entryY=0.5;entryDx=0;entryDy=0;exitX=0.84;exitY=0;exitDx=0;exitDy=0;exitPerimeter=0;strokeWidth=2;" parent="1" source="vKG6InuEvvyrwk2dPw3P-66" target="kv2m1gdb-LCeSmeL4Ier-3" edge="1">
          <mxGeometry relative="1" as="geometry" />
        </mxCell>
        <mxCell id="vKG6InuEvvyrwk2dPw3P-66" value="缺陷定位引擎" style="rounded=0;whiteSpace=wrap;html=1;fillColor=#ECF3FE;strokeWidth=2;fontSize=16;strokeColor=#6c8ebf;align=center;verticalAlign=middle;fontFamily=Helvetica;movable=1;resizable=1;rotatable=1;deletable=1;editable=1;locked=0;connectable=1;" parent="1" vertex="1">
          <mxGeometry x="270" y="340" width="160" height="40" as="geometry" />
        </mxCell>
        <mxCell id="kv2m1gdb-LCeSmeL4Ier-6" value="" style="edgeStyle=orthogonalEdgeStyle;rounded=0;orthogonalLoop=1;jettySize=auto;html=1;strokeWidth=2;" parent="1" source="vKG6InuEvvyrwk2dPw3P-67" target="vKG6InuEvvyrwk2dPw3P-66" edge="1">
          <mxGeometry relative="1" as="geometry">
            <Array as="points">
              <mxPoint x="320" y="340" />
              <mxPoint x="320" y="340" />
            </Array>
          </mxGeometry>
        </mxCell>
        <mxCell id="vKG6InuEvvyrwk2dPw3P-67" value="测试执行结果" style="rounded=1;whiteSpace=wrap;html=1;fontSize=16;strokeWidth=2;fillColor=#ECF3FE;strokeColor=#6c8ebf;movable=1;resizable=1;rotatable=1;deletable=1;editable=1;locked=0;connectable=1;" parent="1" vertex="1">
          <mxGeometry x="270" y="270" width="100" height="40" as="geometry" />
        </mxCell>
        <mxCell id="vKG6InuEvvyrwk2dPw3P-129" style="edgeStyle=orthogonalEdgeStyle;rounded=0;orthogonalLoop=1;jettySize=auto;html=1;entryX=0;entryY=0.5;entryDx=0;entryDy=0;strokeWidth=2;movable=1;resizable=1;rotatable=1;deletable=1;editable=1;locked=0;connectable=1;dashed=1;" parent="1" source="vKG6InuEvvyrwk2dPw3P-72" target="vKG6InuEvvyrwk2dPw3P-34" edge="1">
          <mxGeometry relative="1" as="geometry" />
        </mxCell>
        <mxCell id="vKG6InuEvvyrwk2dPw3P-72" value="待修复SQL&lt;span class=&quot;eusoft-eudic-chrome-extension-translate-content&quot;&gt;&lt;/span&gt;" style="rounded=1;whiteSpace=wrap;html=1;fillColor=#ECF3FE;strokeWidth=2;fontSize=16;strokeColor=#6c8ebf;align=center;verticalAlign=middle;fontFamily=Helvetica;movable=1;resizable=1;rotatable=1;deletable=1;editable=1;locked=0;connectable=1;" parent="1" vertex="1">
          <mxGeometry x="450" y="340" width="90" height="40" as="geometry" />
        </mxCell>
        <mxCell id="kv2m1gdb-LCeSmeL4Ier-43" style="edgeStyle=orthogonalEdgeStyle;rounded=0;orthogonalLoop=1;jettySize=auto;html=1;entryX=0.75;entryY=0;entryDx=0;entryDy=0;strokeWidth=2;" parent="1" source="vKG6InuEvvyrwk2dPw3P-59" target="vKG6InuEvvyrwk2dPw3P-66" edge="1">
          <mxGeometry relative="1" as="geometry">
            <Array as="points">
              <mxPoint x="390" y="270" />
              <mxPoint x="390" y="270" />
            </Array>
          </mxGeometry>
        </mxCell>
        <mxCell id="vKG6InuEvvyrwk2dPw3P-59" value="" style="rounded=1;whiteSpace=wrap;html=1;strokeWidth=2;fillColor=#ECF3FE;fontSize=16;strokeColor=#6c8ebf;align=center;verticalAlign=middle;fontFamily=Helvetica;movable=1;resizable=1;rotatable=1;deletable=1;editable=1;locked=0;connectable=1;" parent="1" vertex="1">
          <mxGeometry x="270" y="150" width="270" height="90" as="geometry" />
        </mxCell>
        <mxCell id="vKG6InuEvvyrwk2dPw3P-60" value="测试用例" style="strokeWidth=2;html=1;shape=mxgraph.flowchart.multi-document;whiteSpace=wrap;fontSize=16;fillColor=#dae8fc;strokeColor=#6c8ebf;movable=1;resizable=1;rotatable=1;deletable=1;editable=1;locked=0;connectable=1;" parent="1" vertex="1">
          <mxGeometry x="280" y="180" width="80" height="55" as="geometry" />
        </mxCell>
        <mxCell id="vKG6InuEvvyrwk2dPw3P-63" value="测试用例&lt;div style=&quot;font-size: 16px;&quot;&gt;依赖关系&lt;/div&gt;" style="strokeWidth=2;html=1;shape=mxgraph.flowchart.multi-document;whiteSpace=wrap;fontSize=16;strokeColor=#6c8ebf;align=center;verticalAlign=middle;fontFamily=Helvetica;fillColor=#dae8fc;movable=1;resizable=1;rotatable=1;deletable=1;editable=1;locked=0;connectable=1;" parent="1" vertex="1">
          <mxGeometry x="370" y="180" width="80" height="55" as="geometry" />
        </mxCell>
        <mxCell id="vKG6InuEvvyrwk2dPw3P-64" value="测试用例集" style="text;html=1;align=center;verticalAlign=middle;whiteSpace=wrap;rounded=0;fontSize=16;strokeWidth=2;movable=1;resizable=1;rotatable=1;deletable=1;editable=1;locked=0;connectable=1;" parent="1" vertex="1">
          <mxGeometry x="365" y="150" width="90" height="30" as="geometry" />
        </mxCell>
        <mxCell id="vKG6InuEvvyrwk2dPw3P-121" value="" style="rounded=0;whiteSpace=wrap;html=1;strokeWidth=2;fillColor=#F4EDF7;strokeColor=#9673a6;movable=1;resizable=1;rotatable=1;deletable=1;editable=1;locked=0;connectable=1;" parent="1" vertex="1">
          <mxGeometry x="260" y="440" width="290" height="220" as="geometry" />
        </mxCell>
        <mxCell id="vKG6InuEvvyrwk2dPw3P-108" value="" style="edgeStyle=orthogonalEdgeStyle;rounded=0;orthogonalLoop=1;jettySize=auto;html=1;fontSize=16;strokeWidth=2;movable=1;resizable=1;rotatable=1;deletable=1;editable=1;locked=0;connectable=1;" parent="1" source="vKG6InuEvvyrwk2dPw3P-104" target="vKG6InuEvvyrwk2dPw3P-107" edge="1">
          <mxGeometry relative="1" as="geometry" />
        </mxCell>
        <mxCell id="vKG6InuEvvyrwk2dPw3P-104" value="测试用例" style="strokeWidth=2;html=1;shape=mxgraph.flowchart.multi-document;whiteSpace=wrap;fontSize=16;fillColor=#EBE0F1;strokeColor=#9673a6;movable=1;resizable=1;rotatable=1;deletable=1;editable=1;locked=0;connectable=1;" parent="1" vertex="1">
          <mxGeometry x="450" y="470" width="90" height="40" as="geometry" />
        </mxCell>
        <mxCell id="vKG6InuEvvyrwk2dPw3P-107" value="Jenkins" style="rounded=0;whiteSpace=wrap;html=1;fontSize=16;strokeWidth=2;strokeColor=#9673a6;align=center;verticalAlign=middle;fontFamily=Helvetica;fillColor=#EBE0F1;movable=1;resizable=1;rotatable=1;deletable=1;editable=1;locked=0;connectable=1;" parent="1" vertex="1">
          <mxGeometry x="270" y="470" width="120" height="40" as="geometry" />
        </mxCell>
        <mxCell id="vKG6InuEvvyrwk2dPw3P-115" style="edgeStyle=orthogonalEdgeStyle;rounded=0;orthogonalLoop=1;jettySize=auto;html=1;entryX=0.5;entryY=0;entryDx=0;entryDy=0;exitX=0.226;exitY=1.013;exitDx=0;exitDy=0;exitPerimeter=0;strokeWidth=2;movable=1;resizable=1;rotatable=1;deletable=1;editable=1;locked=0;connectable=1;" parent="1" source="vKG6InuEvvyrwk2dPw3P-109" target="vKG6InuEvvyrwk2dPw3P-112" edge="1">
          <mxGeometry relative="1" as="geometry" />
        </mxCell>
        <mxCell id="vKG6InuEvvyrwk2dPw3P-118" style="edgeStyle=orthogonalEdgeStyle;rounded=0;orthogonalLoop=1;jettySize=auto;html=1;entryX=0.75;entryY=1;entryDx=0;entryDy=0;exitX=0.324;exitY=-0.025;exitDx=0;exitDy=0;exitPerimeter=0;strokeWidth=2;movable=1;resizable=1;rotatable=1;deletable=1;editable=1;locked=0;connectable=1;" parent="1" source="vKG6InuEvvyrwk2dPw3P-109" target="vKG6InuEvvyrwk2dPw3P-107" edge="1">
          <mxGeometry relative="1" as="geometry" />
        </mxCell>
        <mxCell id="vKG6InuEvvyrwk2dPw3P-109" value="适配器层" style="rounded=0;whiteSpace=wrap;html=1;fontSize=16;strokeWidth=2;strokeColor=#9673a6;align=center;verticalAlign=middle;fontFamily=Helvetica;fillColor=#EBE0F1;movable=1;resizable=1;rotatable=1;deletable=1;editable=1;locked=0;connectable=1;" parent="1" vertex="1">
          <mxGeometry x="270" y="540" width="270" height="40" as="geometry" />
        </mxCell>
        <mxCell id="kv2m1gdb-LCeSmeL4Ier-42" value="" style="edgeStyle=orthogonalEdgeStyle;rounded=0;orthogonalLoop=1;jettySize=auto;html=1;strokeWidth=2;" parent="1" source="vKG6InuEvvyrwk2dPw3P-110" target="vKG6InuEvvyrwk2dPw3P-109" edge="1">
          <mxGeometry relative="1" as="geometry">
            <Array as="points">
              <mxPoint x="475" y="590" />
              <mxPoint x="475" y="590" />
            </Array>
          </mxGeometry>
        </mxCell>
        <mxCell id="vKG6InuEvvyrwk2dPw3P-110" value="当前系统状态（yml配置文件）" style="rounded=1;whiteSpace=wrap;html=1;fontSize=16;strokeWidth=2;strokeColor=#9673a6;align=center;verticalAlign=middle;fontFamily=Helvetica;fillColor=#EBE0F1;movable=1;resizable=1;rotatable=1;deletable=1;editable=1;locked=0;connectable=1;" parent="1" vertex="1">
          <mxGeometry x="410" y="610" width="130" height="40" as="geometry" />
        </mxCell>
        <mxCell id="kv2m1gdb-LCeSmeL4Ier-2" style="edgeStyle=orthogonalEdgeStyle;rounded=0;orthogonalLoop=1;jettySize=auto;html=1;entryX=0;entryY=0.5;entryDx=0;entryDy=0;dashed=1;strokeWidth=2;" parent="1" source="vKG6InuEvvyrwk2dPw3P-112" target="vKG6InuEvvyrwk2dPw3P-67" edge="1">
          <mxGeometry relative="1" as="geometry">
            <Array as="points">
              <mxPoint x="230" y="630" />
              <mxPoint x="230" y="290" />
            </Array>
          </mxGeometry>
        </mxCell>
        <mxCell id="vKG6InuEvvyrwk2dPw3P-112" value="&lt;span style=&quot;font-size: 16px;&quot;&gt;测试执行结果&lt;/span&gt;" style="rounded=1;whiteSpace=wrap;html=1;fontSize=16;strokeWidth=2;strokeColor=#9673a6;align=center;verticalAlign=middle;fontFamily=Helvetica;fillColor=#EBE0F1;movable=1;resizable=1;rotatable=1;deletable=1;editable=1;locked=0;connectable=1;" parent="1" vertex="1">
          <mxGeometry x="270" y="610" width="120" height="40" as="geometry" />
        </mxCell>
        <mxCell id="vKG6InuEvvyrwk2dPw3P-120" style="edgeStyle=orthogonalEdgeStyle;rounded=0;orthogonalLoop=1;jettySize=auto;html=1;entryX=0.139;entryY=0.025;entryDx=0;entryDy=0;entryPerimeter=0;exitX=0.317;exitY=1.025;exitDx=0;exitDy=0;exitPerimeter=0;strokeWidth=2;movable=1;resizable=1;rotatable=1;deletable=1;editable=1;locked=0;connectable=1;" parent="1" source="vKG6InuEvvyrwk2dPw3P-107" target="vKG6InuEvvyrwk2dPw3P-109" edge="1">
          <mxGeometry relative="1" as="geometry" />
        </mxCell>
        <mxCell id="vKG6InuEvvyrwk2dPw3P-123" value="代码验证" style="text;html=1;align=center;verticalAlign=middle;whiteSpace=wrap;rounded=0;fontSize=16;strokeWidth=2;fontStyle=1;movable=1;resizable=1;rotatable=1;deletable=1;editable=1;locked=0;connectable=1;" parent="1" vertex="1">
          <mxGeometry x="365" y="440" width="80" height="30" as="geometry" />
        </mxCell>
        <mxCell id="vKG6InuEvvyrwk2dPw3P-130" style="edgeStyle=orthogonalEdgeStyle;rounded=0;orthogonalLoop=1;jettySize=auto;html=1;entryX=1;entryY=0.5;entryDx=0;entryDy=0;strokeWidth=2;movable=1;resizable=1;rotatable=1;deletable=1;editable=1;locked=0;connectable=1;dashed=1;" parent="1" source="vKG6InuEvvyrwk2dPw3P-50" target="vKG6InuEvvyrwk2dPw3P-110" edge="1">
          <mxGeometry relative="1" as="geometry" />
        </mxCell>
        <mxCell id="kv2m1gdb-LCeSmeL4Ier-1" value="测试用例覆盖SQL" style="strokeWidth=2;html=1;shape=mxgraph.flowchart.multi-document;whiteSpace=wrap;fontSize=16;strokeColor=#6c8ebf;align=center;verticalAlign=middle;fontFamily=Helvetica;fillColor=#dae8fc;movable=1;resizable=1;rotatable=1;deletable=1;editable=1;locked=0;connectable=1;" parent="1" vertex="1">
          <mxGeometry x="455" y="180" width="80" height="55" as="geometry" />
        </mxCell>
        <mxCell id="kv2m1gdb-LCeSmeL4Ier-3" value="已修复SQL&lt;span class=&quot;eusoft-eudic-chrome-extension-translate-content&quot;&gt;&lt;/span&gt;" style="rounded=1;whiteSpace=wrap;html=1;fillColor=#ECF3FE;strokeWidth=2;fontSize=16;strokeColor=#6c8ebf;align=center;verticalAlign=middle;fontFamily=Helvetica;movable=1;resizable=1;rotatable=1;deletable=1;editable=1;locked=0;connectable=1;" parent="1" vertex="1">
          <mxGeometry x="450" y="270" width="90" height="40" as="geometry" />
        </mxCell>
        <mxCell id="vKG6InuEvvyrwk2dPw3P-56" value="&lt;span style=&quot;font-size: 16px;&quot;&gt;测试用例&lt;/span&gt;&lt;div style=&quot;font-size: 16px;&quot;&gt;&lt;span style=&quot;font-size: 16px;&quot;&gt;报错信息&lt;/span&gt;&lt;br style=&quot;font-size: 16px;&quot;&gt;&lt;/div&gt;" style="strokeWidth=2;html=1;shape=mxgraph.flowchart.multi-document;whiteSpace=wrap;strokeColor=#b85450;align=center;verticalAlign=middle;fontFamily=Helvetica;fontSize=16;fontColor=default;fillColor=#fbe1df;movable=1;resizable=1;rotatable=1;deletable=1;editable=1;locked=0;connectable=1;rounded=0;fontStyle=0;" parent="1" vertex="1">
          <mxGeometry x="680" y="279.5" width="70" height="50" as="geometry" />
        </mxCell>
        <mxCell id="vKG6InuEvvyrwk2dPw3P-23" value="多路召回检索引擎" style="rounded=0;whiteSpace=wrap;html=1;fontStyle=0;fontSize=16;strokeWidth=2;strokeColor=#b85450;align=center;verticalAlign=middle;fontFamily=Helvetica;fillColor=#fbe1df;movable=1;resizable=1;rotatable=1;deletable=1;editable=1;locked=0;connectable=1;container=0;" parent="1" vertex="1">
          <mxGeometry x="780" y="284.5" width="200" height="40" as="geometry" />
        </mxCell>
        <mxCell id="kv2m1gdb-LCeSmeL4Ier-29" value="" style="edgeStyle=orthogonalEdgeStyle;rounded=0;orthogonalLoop=1;jettySize=auto;html=1;exitX=0.503;exitY=1;exitDx=0;exitDy=0;exitPerimeter=0;strokeWidth=2;" parent="1" source="vKG6InuEvvyrwk2dPw3P-29" target="vKG6InuEvvyrwk2dPw3P-42" edge="1">
          <mxGeometry relative="1" as="geometry" />
        </mxCell>
        <mxCell id="vKG6InuEvvyrwk2dPw3P-29" value="过滤器" style="rounded=0;whiteSpace=wrap;html=1;fontSize=16;strokeWidth=2;strokeColor=#b85450;align=center;verticalAlign=middle;fontFamily=Helvetica;fillColor=#fbe1df;movable=1;resizable=1;rotatable=1;deletable=1;editable=1;locked=0;connectable=1;container=0;" parent="1" vertex="1">
          <mxGeometry x="659" y="350" width="320" height="40" as="geometry" />
        </mxCell>
        <mxCell id="vKG6InuEvvyrwk2dPw3P-31" value="召回内容&lt;div&gt;重排序与格式化&lt;/div&gt;" style="rounded=0;whiteSpace=wrap;html=1;fontSize=16;strokeWidth=2;strokeColor=#b85450;align=center;verticalAlign=middle;fontFamily=Helvetica;fillColor=#fbe1df;movable=1;resizable=1;rotatable=1;deletable=1;editable=1;locked=0;connectable=1;container=0;" parent="1" vertex="1">
          <mxGeometry x="835" y="420" width="145" height="40" as="geometry" />
        </mxCell>
        <mxCell id="vKG6InuEvvyrwk2dPw3P-34" value="SQL输入" style="rounded=1;whiteSpace=wrap;html=1;fontSize=16;strokeWidth=2;strokeColor=#b85450;align=center;verticalAlign=middle;fontFamily=Helvetica;fillColor=#fbe1df;movable=1;resizable=1;rotatable=1;deletable=1;editable=1;locked=0;connectable=1;container=0;" parent="1" vertex="1">
          <mxGeometry x="659" y="420" width="145" height="40" as="geometry" />
        </mxCell>
        <mxCell id="kv2m1gdb-LCeSmeL4Ier-20" style="edgeStyle=orthogonalEdgeStyle;rounded=0;orthogonalLoop=1;jettySize=auto;html=1;strokeWidth=2;" parent="1" source="vKG6InuEvvyrwk2dPw3P-24" target="vKG6InuEvvyrwk2dPw3P-23" edge="1">
          <mxGeometry relative="1" as="geometry">
            <Array as="points">
              <mxPoint x="880" y="250" />
              <mxPoint x="880" y="250" />
            </Array>
          </mxGeometry>
        </mxCell>
        <mxCell id="vKG6InuEvvyrwk2dPw3P-24" value="" style="rounded=1;whiteSpace=wrap;html=1;fillColor=#fbe1df;strokeWidth=2;strokeColor=#b85450;movable=1;resizable=1;rotatable=1;deletable=1;editable=1;locked=0;connectable=1;container=0;" parent="1" vertex="1">
          <mxGeometry x="660" y="150" width="320" height="97.5" as="geometry" />
        </mxCell>
        <mxCell id="vKG6InuEvvyrwk2dPw3P-49" value="" style="edgeStyle=orthogonalEdgeStyle;rounded=0;orthogonalLoop=1;jettySize=auto;html=1;strokeWidth=2;movable=1;resizable=1;rotatable=1;deletable=1;editable=1;locked=0;connectable=1;" parent="1" source="vKG6InuEvvyrwk2dPw3P-42" target="vKG6InuEvvyrwk2dPw3P-48" edge="1">
          <mxGeometry relative="1" as="geometry" />
        </mxCell>
        <mxCell id="vKG6InuEvvyrwk2dPw3P-42" value="提示词构建器" style="rounded=0;whiteSpace=wrap;html=1;fontSize=16;strokeWidth=2;strokeColor=#b85450;align=center;verticalAlign=middle;fontFamily=Helvetica;fillColor=#fbe1df;movable=1;resizable=1;rotatable=1;deletable=1;editable=1;locked=0;connectable=1;container=0;" parent="1" vertex="1">
          <mxGeometry x="660" y="480" width="320" height="40" as="geometry" />
        </mxCell>
        <mxCell id="vKG6InuEvvyrwk2dPw3P-47" style="edgeStyle=orthogonalEdgeStyle;rounded=0;orthogonalLoop=1;jettySize=auto;html=1;entryX=0.773;entryY=0;entryDx=0;entryDy=0;entryPerimeter=0;strokeWidth=2;movable=1;resizable=1;rotatable=1;deletable=1;editable=1;locked=0;connectable=1;" parent="1" source="vKG6InuEvvyrwk2dPw3P-31" target="vKG6InuEvvyrwk2dPw3P-42" edge="1">
          <mxGeometry relative="1" as="geometry" />
        </mxCell>
        <mxCell id="vKG6InuEvvyrwk2dPw3P-51" value="" style="edgeStyle=orthogonalEdgeStyle;rounded=0;orthogonalLoop=1;jettySize=auto;html=1;strokeWidth=2;movable=1;resizable=1;rotatable=1;deletable=1;editable=1;locked=0;connectable=1;" parent="1" source="vKG6InuEvvyrwk2dPw3P-48" target="vKG6InuEvvyrwk2dPw3P-50" edge="1">
          <mxGeometry relative="1" as="geometry" />
        </mxCell>
        <mxCell id="vKG6InuEvvyrwk2dPw3P-48" value="LLM" style="rounded=0;whiteSpace=wrap;html=1;fontSize=16;strokeWidth=2;strokeColor=#b85450;align=center;verticalAlign=middle;fontFamily=Helvetica;fillColor=#fbe1df;movable=1;resizable=1;rotatable=1;deletable=1;editable=1;locked=0;connectable=1;container=0;" parent="1" vertex="1">
          <mxGeometry x="660" y="550" width="320" height="40" as="geometry" />
        </mxCell>
        <mxCell id="vKG6InuEvvyrwk2dPw3P-50" value="目标数据库SQL" style="rounded=1;whiteSpace=wrap;html=1;fontSize=16;strokeWidth=2;strokeColor=#b85450;align=center;verticalAlign=middle;fontFamily=Helvetica;fillColor=#fbe1df;movable=1;resizable=1;rotatable=1;deletable=1;editable=1;locked=0;connectable=1;container=0;" parent="1" vertex="1">
          <mxGeometry x="660" y="610" width="320" height="40" as="geometry" />
        </mxCell>
        <mxCell id="vKG6InuEvvyrwk2dPw3P-16" value="代码生成" style="text;html=1;align=center;verticalAlign=middle;whiteSpace=wrap;rounded=0;fontSize=16;strokeWidth=2;fontStyle=1;movable=1;resizable=1;rotatable=1;deletable=1;editable=1;locked=0;connectable=1;container=0;" parent="1" vertex="1">
          <mxGeometry x="775" y="110" width="90" height="30" as="geometry" />
        </mxCell>
        <mxCell id="vKG6InuEvvyrwk2dPw3P-54" value="&lt;span style=&quot;font-size: 16px;&quot;&gt;数据库&lt;/span&gt;&lt;div style=&quot;font-size: 16px;&quot;&gt;文档&lt;/div&gt;" style="strokeWidth=2;html=1;shape=mxgraph.flowchart.multi-document;whiteSpace=wrap;fillColor=#f8cecc;strokeColor=#b85450;fontSize=16;movable=1;resizable=1;rotatable=1;deletable=1;editable=1;locked=0;connectable=1;container=0;" parent="1" vertex="1">
          <mxGeometry x="890" y="190" width="70" height="50" as="geometry" />
        </mxCell>
        <mxCell id="vKG6InuEvvyrwk2dPw3P-57" value="&lt;div style=&quot;font-size: 16px;&quot;&gt;&lt;span style=&quot;font-size: 16px;&quot;&gt;web&lt;/span&gt;&lt;/div&gt;" style="strokeWidth=2;html=1;shape=mxgraph.flowchart.multi-document;whiteSpace=wrap;strokeColor=#b85450;align=center;verticalAlign=middle;fontFamily=Helvetica;fontSize=16;fillColor=#f8cecc;movable=1;resizable=1;rotatable=1;deletable=1;editable=1;locked=0;connectable=1;container=0;" parent="1" vertex="1">
          <mxGeometry x="754.5" y="190" width="58" height="50" as="geometry" />
        </mxCell>
        <mxCell id="vKG6InuEvvyrwk2dPw3P-26" value="知识库" style="text;html=1;align=center;verticalAlign=middle;whiteSpace=wrap;rounded=0;fontSize=16;fontStyle=0;strokeWidth=2;movable=1;resizable=1;rotatable=1;deletable=1;editable=1;locked=0;connectable=1;container=0;" parent="1" vertex="1">
          <mxGeometry x="790" y="150" width="60" height="30" as="geometry" />
        </mxCell>
        <mxCell id="vKG6InuEvvyrwk2dPw3P-55" value="&lt;span style=&quot;font-size: 16px;&quot;&gt;SQL&lt;/span&gt;&lt;div style=&quot;font-size: 16px;&quot;&gt;&lt;span style=&quot;font-size: 16px;&quot;&gt;转换例子&lt;/span&gt;&lt;/div&gt;" style="strokeWidth=2;html=1;shape=mxgraph.flowchart.multi-document;whiteSpace=wrap;strokeColor=#b85450;align=center;verticalAlign=middle;fontFamily=Helvetica;fontSize=16;fillColor=#f8cecc;movable=1;resizable=1;rotatable=1;deletable=1;editable=1;locked=0;connectable=1;container=0;" parent="1" vertex="1">
          <mxGeometry x="680" y="190" width="70" height="50" as="geometry" />
        </mxCell>
        <mxCell id="kv2m1gdb-LCeSmeL4Ier-11" style="edgeStyle=orthogonalEdgeStyle;rounded=0;orthogonalLoop=1;jettySize=auto;html=1;entryX=0;entryY=0.5;entryDx=0;entryDy=0;entryPerimeter=0;dashed=1;strokeWidth=2;" parent="1" source="kv2m1gdb-LCeSmeL4Ier-3" target="vKG6InuEvvyrwk2dPw3P-55" edge="1">
          <mxGeometry relative="1" as="geometry">
            <Array as="points">
              <mxPoint x="650" y="290" />
              <mxPoint x="650" y="215" />
            </Array>
          </mxGeometry>
        </mxCell>
        <mxCell id="kv2m1gdb-LCeSmeL4Ier-19" style="edgeStyle=orthogonalEdgeStyle;rounded=0;orthogonalLoop=1;jettySize=auto;html=1;entryX=0.691;entryY=0.05;entryDx=0;entryDy=0;entryPerimeter=0;strokeWidth=2;" parent="1" source="vKG6InuEvvyrwk2dPw3P-23" target="vKG6InuEvvyrwk2dPw3P-29" edge="1">
          <mxGeometry relative="1" as="geometry" />
        </mxCell>
        <mxCell id="kv2m1gdb-LCeSmeL4Ier-25" style="edgeStyle=orthogonalEdgeStyle;rounded=0;orthogonalLoop=1;jettySize=auto;html=1;entryX=0.225;entryY=1;entryDx=0;entryDy=0;entryPerimeter=0;strokeWidth=2;" parent="1" source="vKG6InuEvvyrwk2dPw3P-34" target="vKG6InuEvvyrwk2dPw3P-29" edge="1">
          <mxGeometry relative="1" as="geometry" />
        </mxCell>
        <mxCell id="kv2m1gdb-LCeSmeL4Ier-27" style="edgeStyle=orthogonalEdgeStyle;rounded=0;orthogonalLoop=1;jettySize=auto;html=1;dashed=1;strokeWidth=2;" parent="1" source="vKG6InuEvvyrwk2dPw3P-67" edge="1">
          <mxGeometry relative="1" as="geometry">
            <mxPoint x="680" y="321" as="targetPoint" />
            <Array as="points">
              <mxPoint x="340" y="320" />
              <mxPoint x="525" y="320" />
              <mxPoint x="525" y="321" />
            </Array>
          </mxGeometry>
        </mxCell>
        <mxCell id="kv2m1gdb-LCeSmeL4Ier-28" style="edgeStyle=orthogonalEdgeStyle;rounded=0;orthogonalLoop=1;jettySize=auto;html=1;entryX=0.175;entryY=0.025;entryDx=0;entryDy=0;entryPerimeter=0;strokeWidth=2;" parent="1" source="vKG6InuEvvyrwk2dPw3P-56" target="vKG6InuEvvyrwk2dPw3P-29" edge="1">
          <mxGeometry relative="1" as="geometry" />
        </mxCell>
        <mxCell id="kv2m1gdb-LCeSmeL4Ier-33" style="edgeStyle=orthogonalEdgeStyle;rounded=0;orthogonalLoop=1;jettySize=auto;html=1;entryX=0.448;entryY=0.075;entryDx=0;entryDy=0;entryPerimeter=0;strokeWidth=2;" parent="1" source="vKG6InuEvvyrwk2dPw3P-29" target="vKG6InuEvvyrwk2dPw3P-31" edge="1">
          <mxGeometry relative="1" as="geometry">
            <Array as="points">
              <mxPoint x="900" y="390" />
              <mxPoint x="900" y="390" />
            </Array>
          </mxGeometry>
        </mxCell>
        <mxCell id="kv2m1gdb-LCeSmeL4Ier-36" value="" style="shape=image;editableCssRules=.*;verticalLabelPosition=bottom;labelBackgroundColor=default;verticalAlign=top;aspect=fixed;imageAspect=0;image=data:image/svg+xml,PHN2ZyB4bWxucz0iaHR0cDovL3d3dy53My5vcmcvMjAwMC9zdmciIHZpZXdCb3g9Ii0wLjUgLTAuNSAyOCAyNy44OSIgaGVpZ2h0PSIyNy44OSIgd2lkdGg9IjI4Ij4mI3hhOwkgIDxzdHlsZSB0eXBlPSJ0ZXh0L2NzcyI+LnN0MCB7IHN0b3AtY29sb3I6IHJnYigxNTAsIDExNSwgMTY2KTsgfSAuc3QxIHsgc3RvcC1jb2xvcjogcmdiKDE1MCwgMTE1LCAxNjYpOyB9IDwvc3R5bGU+JiN4YTsJPGRlZnM+JiN4YTsJCTxsaW5lYXJHcmFkaWVudCBncmFkaWVudFVuaXRzPSJ1c2VyU3BhY2VPblVzZSIgeTI9IjI0Ljk1NCIgeDI9IjI1LjIxMiIgeTE9IjMuNjI1IiB4MT0iMy4zNzkiIGlkPSJBIj4mI3hhOwkJCTxzdG9wIGNsYXNzPSJzdDAiLz4mI3hhOwkJCTxzdG9wIGNsYXNzPSJzdDEiIG9mZnNldD0iMSIvPiYjeGE7CQk8L2xpbmVhckdyYWRpZW50PiYjeGE7CTwvZGVmcz4mI3hhOwk8cGF0aCBmaWxsPSJ1cmwoI0EpIiBkPSJNLS4wNjIgMjUuMDMzYy0uMjkxLjI5My0uNDM4LjYwMy0uNDM4LjkzMS4wMDIuMTg2LjA0Mi4zNjkuMTE3LjUzOXMuMTg1LjMyMi4zMjEuNDQ4Yy4xMjYuMTM3LjI3OS4yNDYuNDQ4LjMyMXMuMzUzLjExNS41MzkuMTE3Yy4zMjggMCAuNjM4LS4xNDcuOTMxLS40MzhsMy44OTEtMy44OTFjMS4xMzMuOTg3IDIuNDExIDEuNDYgMy44MzUgMS40MjUgMS40MjYtLjA3NCAyLjY2Ny0uNjQgMy43MjYtMS43MDFsMS4yNjEtMS4yNTljLjI5My0uMjkzLjQzOC0uNjAzLjQzOC0uOTMxIDAtLjM2Ni0uMTQ2LS42OTQtLjQzOC0uOTg3bC03LjEyNC03LjEyMmExLjM2IDEuMzYgMCAwIDAtLjk4NS0uNDM4Yy0uMzY1IDAtLjY5NC4xNDYtLjk4Ny40MzhsLTEuMjU5IDEuMjU5Yy0xLjA1OSAxLjA2MS0xLjYwOCAyLjI4NS0xLjY0NSAzLjY3Mi0uMDcyIDEuMzUyLjM0NyAyLjU3NiAxLjI2MSAzLjY3MnptMTEuMjktNC4zMjljLS41ODYuNTQ5LTEuMjQzLjgyMi0xLjk3My44MjJzLTEuMzg5LS4yNzMtMS45NzMtLjgyMmwtMS4wOTYtMS4wOTZjLS41NDktLjU4NC0uODIyLTEuMjQxLS44MjItMS45NzNzLjI3NC0xLjM4Ny44MjItMS45NzNsLjI3Mi0uMjc0TDExLjUgMjAuNDNsLS4yNzQuMjczem0yLjYzLTQuODc2Yy4xMjYuMTM2LjI3OC4yNDUuNDQ3LjMyMWExLjM2IDEuMzYgMCAwIDAgLjUzOC4xMTdjLjMzIDAgLjY0LS4xNDUuOTMzLS40MzhsMi41MTgtMi41MjEgMS4wOTYgMS4wOTZjLjEyNi4xMzYuMjc5LjI0Ni40NDguMzIxcy4zNTMuMTE1LjUzOS4xMTdhMS4yNSAxLjI1IDAgMCAwIC45ODYtLjQzOGwxLjI2MS0xLjIwNWMxLjA1OS0xLjA1OSAxLjYyNS0yLjI2NSAxLjY5OS0zLjYxN2E1LjY3IDUuNjcgMCAwIDAtMS4xNTItMy43OGwzLjg5MS0zLjg5MUExLjM2IDEuMzYgMCAwIDAgMjcuNS45MjRjMC0uMzY1LS4xNDUtLjY5NC0uNDM4LS45ODdTMjYuNDU4LS41IDI2LjEzMS0uNWMtLjM2NiAwLS42OTQuMTQ3LS45ODcuNDM4bC0zLjg4OSAzLjg5M2MtMS4wNzEtLjg5NC0yLjQ0My0xLjM0Ni0zLjgzNi0xLjI2Mi0xLjQyNi4wNzQtMi42NjUuNjQtMy43MjYgMS43MDFsLTEuMjYxIDEuMjU5Yy0uMTI4LjEzLS4yMjguMjg0LS4yOTQuNDU0cy0uMDk3LjM1MS0uMDkuNTMzYy0uMDAzLjE3My4wMy4zNDUuMDk3LjUwNXMuMTY1LjMwNC4yODkuNDI1bDEuMTQ5IDEuMTUyLTIuNTIgMi40NjVjLS4yOTMuMjkzLS40MzguNjIxLS40MzguOTg3YTEuMzYgMS4zNiAwIDAgMCAuMTE3LjUzOGMuMDc1LjE2OS4xODUuMzIyLjMyMS40NDcuMTI2LjEzNi4yNzkuMjQ2LjQ0OC4zMjFhMS4zNiAxLjM2IDAgMCAwIC41MzkuMTE3Yy4xODUtLjAwMi4zNjgtLjA0Mi41MzgtLjExN3MuMzIyLS4xODUuNDQ3LS4zMjFsMi40NjUtMi41MjEuODc3Ljg3Ny0yLjUxOCAyLjQ2NWMtLjI5My4yOTMtLjQzOC42MjEtLjQzOC45ODdhMS4zNiAxLjM2IDAgMCAwIC4xMTcuNTM4Yy4wNzUuMTY5LjE4NC4zMjIuMzIxLjQ0N3ptMS41MzQtOS4zMTZsLjI3NC0uMzI4YTIuNjkgMi42OSAwIDAgMSAxLjk3My0uODIyYy43MzEgMCAxLjM2OS4yNzQgMS45MTguODIybDEuMDk2IDEuMTVjLjU4NC41NDkuODc3IDEuMjA2Ljg3NyAxLjk3MyAwIC43MzEtLjI5MyAxLjM3MS0uODc3IDEuOTE4bC0uMjczLjI3NC00Ljk4Ny00Ljk4NXoiLz4mI3hhOzwvc3ZnPg==;" parent="1" vertex="1">
          <mxGeometry x="331" y="546" width="28" height="28" as="geometry" />
        </mxCell>
        <mxCell id="kv2m1gdb-LCeSmeL4Ier-37" value="" style="sketch=0;aspect=fixed;pointerEvents=1;shadow=0;dashed=0;html=1;strokeColor=#d79b00;labelPosition=center;verticalLabelPosition=bottom;verticalAlign=top;align=center;fillColor=#B85450;shape=mxgraph.mscae.enterprise.filter" parent="1" vertex="1">
          <mxGeometry x="764.89" y="358.7" width="25.11" height="22.6" as="geometry" />
        </mxCell>
        <mxCell id="kv2m1gdb-LCeSmeL4Ier-39" value="" style="sketch=0;outlineConnect=0;fillColor=#6C8EBF;strokeColor=#6c8ebf;dashed=0;verticalLabelPosition=bottom;verticalAlign=top;align=center;html=1;fontSize=12;fontStyle=0;aspect=fixed;pointerEvents=1;shape=mxgraph.aws4.textract_analyze_lending;" parent="1" vertex="1">
          <mxGeometry x="270" y="344" width="28" height="28" as="geometry" />
        </mxCell>
        <mxCell id="kv2m1gdb-LCeSmeL4Ier-40" value="" style="outlineConnect=0;fillColor=#B85450;strokeColor=none;dashed=0;verticalLabelPosition=bottom;verticalAlign=top;align=center;html=1;fontSize=12;fontStyle=0;aspect=fixed;pointerEvents=1;shape=mxgraph.aws4.sagemaker_model;fillStyle=auto;" parent="1" vertex="1">
          <mxGeometry x="770" y="553" width="27" height="27" as="geometry" />
        </mxCell>
        <mxCell id="kv2m1gdb-LCeSmeL4Ier-41" value="" style="sketch=0;outlineConnect=0;fillColor=#B85450;strokeColor=#B85450;dashed=0;verticalLabelPosition=bottom;verticalAlign=top;align=center;html=1;fontSize=12;fontStyle=0;aspect=fixed;pointerEvents=1;shape=mxgraph.aws4.textract_analyze_lending;" parent="1" vertex="1">
          <mxGeometry x="780" y="290.5" width="28" height="28" as="geometry" />
        </mxCell>
        <mxCell id="eAonHWU2ZSxLC9fR8-G5-1" value="&lt;div style=&quot;font-size: 16px;&quot;&gt;DWF&lt;/div&gt;&lt;div style=&quot;font-size: 16px;&quot;&gt;代码库&lt;/div&gt;" style="strokeWidth=2;html=1;shape=mxgraph.flowchart.multi-document;whiteSpace=wrap;strokeColor=#b85450;align=center;verticalAlign=middle;fontFamily=Helvetica;fontSize=16;fillColor=#f8cecc;movable=1;resizable=1;rotatable=1;deletable=1;editable=1;locked=0;connectable=1;container=0;" parent="1" vertex="1">
          <mxGeometry x="820" y="190" width="58" height="50" as="geometry" />
        </mxCell>
        <mxCell id="eAonHWU2ZSxLC9fR8-G5-5" value="" style="shape=image;editableCssRules=.*;verticalLabelPosition=bottom;labelBackgroundColor=default;verticalAlign=top;aspect=fixed;imageAspect=0;image=data:image/svg+xml,PHN2ZyB4bWxucz0iaHR0cDovL3d3dy53My5vcmcvMjAwMC9zdmciIHZpZXdCb3g9Ii0wLjUgLTAuNSAyNS44NjcgMjgiIGhlaWdodD0iMjgiIHdpZHRoPSIyNS44NjciPiYjeGE7CSAgPHN0eWxlIHR5cGU9InRleHQvY3NzIj4uc3QwIHsgc3RvcC1jb2xvcjogcmdiKDE4NCwgODQsIDgwKTsgfSAuc3QxIHsgc3RvcC1jb2xvcjogcmdiKDE4NCwgODQsIDgwKTsgfSA8L3N0eWxlPiYjeGE7CTxkZWZzPiYjeGE7CQk8bGluZWFyR3JhZGllbnQgZ3JhZGllbnRVbml0cz0idXNlclNwYWNlT25Vc2UiIHkyPSIyMy42MTMiIHgyPSIyMy4yMjciIHkxPSIzLjQ3NCIgeDE9IjEuODQ2IiBpZD0iQSI+JiN4YTsJCQk8c3RvcCBjbGFzcz0ic3QwIi8+JiN4YTsJCQk8c3RvcCBjbGFzcz0ic3QxIiBvZmZzZXQ9IjEiLz4mI3hhOwkJPC9saW5lYXJHcmFkaWVudD4mI3hhOwk8L2RlZnM+JiN4YTsJPHBhdGggZmlsbD0idXJsKCNBKSIgZD0iTTEzLjM5IDI3LjVoLTEuOTE1Yy0uNjU2IDAtMS4yNTctLjIxOS0xLjgwMy0uNjU2YTIuNDYgMi40NiAwIDAgMS0uOTMxLTEuNTg1bC0uMzgzLTEuODA0LTIuMzUtMS40MjMtMS42NDEuNzFhMy42MSAzLjYxIDAgMCAxLTEuMDQuMTY1Yy0uNTA5IDAtMS4wMDMtLjEyOC0xLjQ3Ny0uMzgzLS40NTItLjI3MS0uODEzLS42NzEtMS4wMzgtMS4xNDhsLTEuMDM5LTIuMDIzYy0uMTY5LS4zNzktLjI2Mi0uNzg5LS4yNzMtMS4yMDRhMi43NSAyLjc1IDAgMCAxIDEuMTQ4LTIuMjk2bDEuMjU4LS45Mjl2LTIuODQ1bC0xLjMxMi0uOTgzQy0uMTM2IDEwLjU0Ni0uNSA5Ljc5OS0uNSA4Ljg1MmMwLS4zNjYuMDkxLS43NjcuMjczLTEuMjA0bDEuMDQtMi4wMjNjLjI1NS0uNTExLjYtLjg5MyAxLjAzOC0xLjE0OC40NzQtLjI1NS45NjgtLjM4MyAxLjQ3Ny0uMzgzLjQwMiAwIC43NDcuMDc0IDEuMDQuMjE5bDEuNjQxLjY1NiAyLjM1LTEuNDIzLjM4My0xLjgwMkEyLjY4IDIuNjggMCAwIDEgOS43MjcuMTU2YTIuNjEgMi42MSAwIDAgMSAxLjc1LS42NTZoMS45MTNhMi42MSAyLjYxIDAgMCAxIDEuNzUuNjU2Yy41MTEuNDAzLjg0LjkyOS45ODUgMS41ODZsLjMyNyAxLjgwNiAyLjQwNiAxLjQyMSAxLjY0Mi0uNjU2Yy4yOTEtLjE0NS42MzctLjIxOSAxLjA0LS4yMTlhMi43NyAyLjc3IDAgMCAxIDEuNDIxLjM4M2MuNDczLjI1NS44NC42MzcgMS4wOTQgMS4xNDhsLjk4NSAyLjAyM2MuMjE3LjM2Ni4zMjcuNzg0LjMyNyAxLjI1OCAwIC45MS0uMzgzIDEuNjQyLTEuMTQ4IDIuMTg4bC0xLjMxMi45ODV2Mi44NDRsMS4zMTMuOTI4Yy43NjUuNTg1IDEuMTQ4IDEuMzMyIDEuMTQ4IDIuMjQzIDAgLjQzOC0uMTEuODU4LS4zMjkgMS4yNThsLS45ODMgMi4wMjNjLS4yNTYuNTExLS42MTkuODkyLTEuMDk0IDEuMTQ4LS40MzcuMjU2LS45MS4zODMtMS40MjMuMzgzLS4zNjQgMC0uNzEtLjA1NC0xLjAzOC0uMTY1bC0xLjY0Mi0uNzEtMi40MDYgMS40MjMtLjMyNyAxLjgwMmMtLjE0Ny42NTgtLjQ3NCAxLjE4Ni0uOTg1IDEuNTg3YTIuNjEgMi42MSAwIDAgMS0xLjc1LjY1NnptLTcuMzgzLTguMjU4Yy40NzQgMCAuOTQ5LjE0NyAxLjQyMy40MzhsMi40MDYgMS40MjNjLjczLjQzOCAxLjE0OCAxLjA0IDEuMjU4IDEuODA0bC4zODIgMS44MDRoMS45MTVsLjMyOS0xLjgwNGMuMTgyLS44MDIuNjItMS40MDQgMS4zMTMtMS44MDRsMi4zNTItMS40MjNhMy4wNiAzLjA2IDAgMCAxIDEuNTI5LS40MzdjLjE4NCAwIC4zNDYuMDE3LjQ5NC4wNTRhNC4xNyA0LjE3IDAgMCAxIC40OTIuMTY1bDEuNjQyLjY1Ni45ODMtMi4wMjMtMS4yNTgtLjkyOWMtLjc2NS0uNTg0LTEuMTQ4LTEuMzMtMS4xNDgtMi4yNDJ2LTIuODQ1YzAtLjkxLjM4My0xLjY1NyAxLjE0OC0yLjI0bDEuMjU4LS45MzEtLjk4NS0yLjAyMy0xLjY0LjcxYy0uMzM1LjExMS0uNjg2LjE2Ni0xLjA0LjE2NS0uNTgzIDAtMS4wNzUtLjEyOC0xLjQ3Ny0uMzgzbC0yLjM1LTEuNDc3YTIuNjggMi42OCAwIDAgMS0xLjMxMi0xLjgwNEwxMy4zOSAyLjI5aC0xLjkxNWwtLjM4MiAxLjgwNGMtLjExLjc2Ni0uNTI4IDEuMzY3LTEuMjU4IDEuODA0TDcuNDgzIDcuMzc1Yy0uNDAxLjI1NS0uODkzLjM4My0xLjQ3NS4zODMtLjMyOSAwLS42OTMtLjA1Ni0xLjA5NC0uMTY1bC0xLjY0MS0uNzEtLjk4NSAyLjAyMyAxLjMxMy45MjljLjc2Ny41ODUgMS4xNSAxLjMzIDEuMTUgMi4yNDR2Mi44NDRjMCAuOTEtLjM4MyAxLjY1Ny0xLjE0OCAyLjI0bC0xLjMxMi45MzEgMS4wMzggMi4wMjMgMS42NDEtLjY1NmMuMjktLjE0NS42MzctLjIxOSAxLjA0LS4yMTl6bTYuNC0uMTY1YTUuNTcgNS41NyAwIDAgMS0yLjE4Ny0uNDM3Yy0uNjUzLS4yODktMS4yNDYtLjY5Ny0xLjc1LTEuMjAyYTUuNzcgNS43NyAwIDAgMS0xLjIwNC0xLjc1IDUuNTggNS41OCAwIDAgMS0uNDM3LTIuMTg3IDUuMjEgNS4yMSAwIDAgMSAuNDM4LTIuMTMzYy4yOTItLjY5My42OTMtMS4yOTUgMS4yMDQtMS44MDRzMS4wOTQtLjkxIDEuNzUtMS4yMDRhNS42IDUuNiAwIDAgMSAyLjE4OC0uNDM3Yy43NjUgMCAxLjQ5NS4xNDcgMi4xODguNDM4czEuMjk1LjY5MyAxLjgwNCAxLjIwNC45MSAxLjExMSAxLjIwNCAxLjgwNGMuMjkxLjY1Ni40MzggMS4zNjguNDM4IDIuMTMzYTUuNiA1LjYgMCAwIDEtLjQzNyAyLjE4OGMtLjI5LjY1My0uNjk4IDEuMjQ2LTEuMjA0IDEuNzUtLjUxMS41MTEtMS4xMTEuOTEtMS44MDQgMS4yMDRzLTEuNDIzLjQzNi0yLjE4Ny40MzZ6bTAtOC4zNjVjLS43NjcgMC0xLjQyMy4yNzEtMS45NjkuODE5LS4yNjQuMjU1LS40NzMuNTYxLS42MTQuODk5cy0uMjExLjcwMy0uMjA2IDEuMDY5YzAgLjc2Ny4yNzMgMS40MjMuODIxIDEuOTY5czEuMjAyLjgyMSAxLjk2OS44MjFjLjgwMiAwIDEuNDc3LS4yNzMgMi4wMjMtLjgyMXMuODIxLTEuMjA0LjgyMS0xLjk2OS0uMjczLTEuNDIzLS44MjEtMS45NjlhMi43NSAyLjc1IDAgMCAwLS45MjctLjYyYy0uMzQ4LS4xNDEtLjcyMS0uMjA4LTEuMDk2LS4xOTl6Ii8+JiN4YTs8L3N2Zz4=;" parent="1" vertex="1">
          <mxGeometry x="744" y="486" width="26" height="28" as="geometry" />
        </mxCell>
      </root>
    </mxGraphModel>
  </diagram>
</mxfile>
